Coordinates
version=1
nRows=9
nColumns=24
inDegrees=yes

Units are S.I. units (second, meters, Newtons, ...)
Angles are in degrees.

endheader
time	pelvis_tilt	pelvis_list	pelvis_rotation	pelvis_tx	pelvis_ty	pelvis_tz	hip_flexion_r	hip_adduction_r	hip_rotation_r	knee_angle_r	ankle_angle_r	subtalar_angle_r	mtp_angle_r	hip_flexion_l	hip_adduction_l	hip_rotation_l	knee_angle_l	ankle_angle_l	subtalar_angle_l	mtp_angle_l	lumbar_extension	lumbar_bending	lumbar_rotation
      1.14533333	     -2.90206029	      5.45628339	      0.54961710	      0.12840407	      0.99345966	      0.29146501	     26.62770645	     -6.10395729	     -1.52894928	    -71.59060579	      0.14005396	    -13.18677634	     -0.58241490	     10.25939110	     10.44642360	      4.96144515	    -11.14591976	      1.64092823	    -12.92511575	     -0.68858522	      0.17268902	     -2.61832203	      3.21437011
      1.14950000	     -2.80718893	      5.34239397	      0.56337152	      0.13359812	      0.99434967	      0.29146937	     27.01307246	     -5.92947557	     -1.45794579	    -71.10591939	      0.70855702	    -13.43444044	     -0.69618266	      9.61533608	     10.32373935	      5.16508337	    -10.76163907	      1.70430072	    -13.03113503	     -0.77017637	      0.04418367	     -2.49195923	      3.10609231
      1.15366667	     -2.79705410	      5.19452803	      0.58571872	      0.13871942	      0.99506784	      0.29149902	     27.47691675	     -5.71173073	     -1.39132424	    -70.56198306	      1.30678604	    -13.57515737	     -0.74073710	      9.11146122	     10.15921914	      5.31495195	    -10.46645193	      1.80763438	    -13.04987344	     -0.80523238	     -0.00450157	     -2.31439275	      3.06315488
      1.15783333	     -2.74156468	      5.07602054	      0.60538432	      0.14388937	      0.99580971	      0.29150774	     27.86794057	     -5.53919296	     -1.33444795	    -69.95777003	      1.86081333	    -13.79755195	     -0.90663774	      8.52417597	     10.02831428	      5.50795460	    -10.10272330	      1.86590759	    -13.16247084	     -0.92246759	     -0.08921095	     -2.17579926	      2.94724795
      1.16200000	     -2.73425928	      4.92085179	      0.63315817	      0.14899916	      0.99645486	      0.29154612	     28.28920074	     -5.31991282	     -1.28413922	    -69.28276856	      2.44095017	    -13.92564424	     -0.94970841	      8.03549197	      9.85265273	      5.64927676	     -9.82834440	      1.99899386	    -13.15907803	     -0.95470627	     -0.13673988	     -1.99490498	      2.91414485
      1.16616667	     -2.67592579	      4.81455040	      0.65074704	      0.15413236	      0.99711342	      0.29157672	     28.64146327	     -5.16127389	     -1.22815601	    -68.56515117	      2.99089592	    -14.13984263	     -1.06203005	      7.46132326	      9.72888914	      5.81783034	     -9.48974080	      2.10365467	    -13.21204824	     -1.03107209	     -0.24311089	     -1.87203418	      2.81575106
      1.17033333	     -2.64148140	      4.68231302	      0.67888472	      0.15925064	      0.99770033	      0.29160324	     28.99132479	     -4.97969577	     -1.19065755	    -67.77346008	      3.51681943	    -14.30427502	     -1.18469044	      6.92910829	      9.57637889	      5.97658437	     -9.18069168	      2.20885983	    -13.25864422	     -1.11224043	     -0.31895984	     -1.71926573	      2.73567199
      1.17450000	     -2.65319591	      4.53465154	      0.71485991	      0.16434912	      0.99819184	      0.29164535	     29.36598982	     -4.77988494	     -1.15958105	    -66.91249968	      4.01072775	    -14.42811297	     -1.24247362	      6.47181154	      9.40496006	      6.10558046	     -8.91940622	      2.32244510	    -13.26650033	     -1.14998115	     -0.33446619	     -1.54942009	      2.69182139
      1.17866667	     -2.64336864	      4.41767133	      0.74917106	      0.16944385	      0.99864042	      0.29167607	     29.70421143	     -4.62126802	     -1.12968330	    -66.01233110	      4.49185868	    -14.59350838	     -1.30968956	      5.98193398	      9.26583266	      6.24232258	     -8.63647839	      2.44539312	    -13.28444992	     -1.19094038	     -0.38437214	     -1.41676336	      2.62274864
